<svg width="20" height="18" viewBox="0 0 20 18" fill="none" xmlns="http://www.w3.org/2000/svg">
<path d="M18.0088 4.77878H14.2101C14.4827 4.59269 14.7168 4.4078 14.8801 4.24212C15.8477 3.26845 15.8477 1.68367 14.8801 0.709997C13.94 -0.236065 12.3 -0.237266 11.3587 0.709997C10.8389 1.23225 9.45702 3.35849 9.64791 4.77878H9.56147C9.75116 3.35849 8.37048 1.23225 7.85063 0.709997C6.90937 -0.237266 5.26937 -0.236065 4.32931 0.709997C3.36164 1.68367 3.36164 3.26845 4.32811 4.24212C4.49259 4.4078 4.72671 4.59269 4.99924 4.77878H1.20059C0.539063 4.77878 0 5.31785 0 5.97937V8.98083C0 9.31219 0.268931 9.58113 0.600293 9.58113H1.20059V16.7846C1.20059 17.4462 1.73965 17.9852 2.40117 17.9852H16.8082C17.4697 17.9852 18.0088 17.4462 18.0088 16.7846V9.58113H18.6091C18.9404 9.58113 19.2094 9.31219 19.2094 8.98083V5.97937C19.2094 5.31785 18.6703 4.77878 18.0088 4.77878ZM5.18053 1.55641C5.42425 1.31149 5.7472 1.17702 6.09057 1.17702C6.43274 1.17702 6.7557 1.31149 6.99942 1.55641C7.80861 2.37041 8.613 4.44982 8.33327 4.73916C8.33327 4.73916 8.28284 4.77878 8.11116 4.77878C7.28155 4.77878 5.69798 3.91676 5.18053 3.39571C4.67748 2.88906 4.67748 2.06306 5.18053 1.55641ZM9.00439 16.7846H2.40117V9.58113H9.00439V16.7846ZM9.00439 8.38054H1.20059V5.97937H8.11116H9.00439V8.38054ZM12.21 1.55641C12.6974 1.06777 13.5426 1.06897 14.0288 1.55641C14.5319 2.06306 14.5319 2.88906 14.0288 3.39571C13.5114 3.91676 11.9278 4.77878 11.0982 4.77878C10.9265 4.77878 10.8761 4.74036 10.8749 4.73916C10.5964 4.44982 11.4008 2.37041 12.21 1.55641ZM16.8082 16.7846H10.205V9.58113H16.8082V16.7846ZM18.0088 8.38054H10.205V5.97937H11.0982H18.0088V8.38054Z" fill="#3E2202"/>
</svg>
